<svg viewBox="0 0 120 40" fill="none" xmlns="http://www.w3.org/2000/svg">
  <path d="M20 8C13.4 8 8 13.4 8 20C8 26.6 13.4 32 20 32C26.6 32 32 26.6 32 20C32 13.4 26.6 8 20 8Z" fill="#00AAFF"/>
  <path d="M20 14C16.7 14 14 16.7 14 20C14 23.3 16.7 26 20 26C23.3 26 26 23.3 26 20C26 16.7 23.3 14 20 14Z" fill="white"/>
  <path d="M48 28L42 12H46L50 23L54 12H58L52 28H48Z" fill="#1A1A1A"/>
  <path d="M60 28V12H64V28H60Z" fill="#1A1A1A"/>
  <path d="M74 28V16H68V12H84V16H78V28H74Z" fill="#1A1A1A"/>
  <path d="M94 8C87.4 8 82 13.4 82 20C82 26.6 87.4 32 94 32C100.6 32 106 26.6 106 20C106 13.4 100.6 8 94 8ZM94 28C89.6 28 86 24.4 86 20C86 15.6 89.6 12 94 12C98.4 12 102 15.6 102 20C102 24.4 98.4 28 94 28Z" fill="#1A1A1A"/>
</svg>
