<svg viewBox="0 0 120 40" fill="none" xmlns="http://www.w3.org/2000/svg">
  <path d="M20 8C13.4 8 8 13.4 8 20C8 26.6 13.4 32 20 32C26.6 32 32 26.6 32 20C32 13.4 26.6 8 20 8ZM20 28C15.6 28 12 24.4 12 20C12 15.6 15.6 12 20 12C24.4 12 28 15.6 28 20C28 24.4 24.4 28 20 28Z" fill="#005BFF"/>
  <path d="M50 28H38V24L46 16H38V12H50V16L42 24H50V28Z" fill="#005BFF"/>
  <path d="M64 8C57.4 8 52 13.4 52 20C52 26.6 57.4 32 64 32C70.6 32 76 26.6 76 20C76 13.4 70.6 8 64 8ZM64 28C59.6 28 56 24.4 56 20C56 15.6 59.6 12 64 12C68.4 12 72 15.6 72 20C72 24.4 68.4 28 64 28Z" fill="#005BFF"/>
  <path d="M78 28V12H82L92 22V12H96V28H92L82 18V28H78Z" fill="#005BFF"/>
</svg>
