<svg viewBox="0 0 120 40" fill="none" xmlns="http://www.w3.org/2000/svg">
  <path d="M20 6C11.2 6 4 13.2 4 22C4 30.8 11.2 38 20 38C28.8 38 36 30.8 36 22C36 13.2 28.8 6 20 6Z" fill="#FFDD2D"/>
  <path d="M20 12V18M20 18V24M20 18H14M20 18H26" stroke="#1A1A1A" stroke-width="3" stroke-linecap="round"/>
  <path d="M50 28V16H44V12H60V16H54V28H50Z" fill="#1A1A1A"/>
  <path d="M62 28V12H66V28H62Z" fill="#1A1A1A"/>
  <path d="M70 28V12H74L82 22V12H86V28H82L74 18V28H70Z" fill="#1A1A1A"/>
  <path d="M90 28V12H94V17L100 12H105L98 18L106 28H101L95 20L94 21V28H90Z" fill="#1A1A1A"/>
</svg>
