<svg viewBox="0 0 120 40" fill="none" xmlns="http://www.w3.org/2000/svg">
  <rect x="4" y="4" width="32" height="32" rx="8" fill="#0077FF"/>
  <path d="M25.5 14H23.5C23 14 22.8 14.3 22.8 14.7C22.8 15.5 24.5 17.5 24.5 17.5C24.5 17.5 26.5 20 26.5 21.5C26.5 22 26 22.5 25.5 22.5H23.5C23 22.5 22.5 22 22.5 21.5C22.5 20.5 21 18 20 17C19 18 17.5 20.5 17.5 21.5C17.5 22 17 22.5 16.5 22.5H14.5C14 22.5 13.5 22 13.5 21.5C13.5 20 15.5 17.5 15.5 17.5C15.5 17.5 17.2 15.5 17.2 14.7C17.2 14.3 17 14 16.5 14H14.5C14 14 13.5 13.5 13.5 13C13.5 12.5 14 12 14.5 12H18C18.5 12 19 12.5 19 13C19 13.5 18.5 14.5 18.5 15C18.5 15.5 20 18 20 18C20 18 21.5 15.5 21.5 15C21.5 14.5 21 13.5 21 13C21 12.5 21.5 12 22 12H25.5C26 12 26.5 12.5 26.5 13C26.5 13.5 26 14 25.5 14Z" fill="white"/>
  <path d="M48 28L54 12H58L64 28H60L58.5 24H53.5L52 28H48ZM54.5 21H57.5L56 16L54.5 21Z" fill="#0077FF"/>
  <path d="M66 28V12H70V17L76 12H81L74 18L82 28H77L71 20L70 21V28H66Z" fill="#0077FF"/>
</svg>
