<svg viewBox="0 0 120 40" fill="none" xmlns="http://www.w3.org/2000/svg">
  <path d="M28.5 8H24.2L18.8 18.5L13.4 8H8.5L16.5 23V32H21V23L28.5 8Z" fill="#FC3F1D"/>
  <path d="M38 32V8H42V18H52V8H56V32H52V22H42V32H38Z" fill="#1A1A1A"/>
  <path d="M72 32H60V8H72C77.5 8 81 11.5 81 16V24C81 28.5 77.5 32 72 32ZM64 28H71C74.5 28 77 25.5 77 22V18C77 14.5 74.5 12 71 12H64V28Z" fill="#1A1A1A"/>
  <path d="M85 32V8H99V12H89V18H97V22H89V28H99V32H85Z" fill="#1A1A1A"/>
  <path d="M102 32L110 19.5L103 8H108L112.5 15.5L117 8H122L115 19.5L123 32H118L112.5 23.5L107 32H102Z" fill="#1A1A1A"/>
</svg>
